<svg width="28" height="28" viewBox="0 0 28 28" fill="none" xmlns="http://www.w3.org/2000/svg">
<path d="M26.5766 23.9234C26.9289 24.2757 27.1267 24.7534 27.1267 25.2516C27.1267 25.7497 26.9289 26.2274 26.5766 26.5797C26.2244 26.9319 25.7466 27.1298 25.2485 27.1298C24.7503 27.1298 24.2726 26.9319 23.9204 26.5797L14.0001 16.6562L4.07662 26.5766C3.72438 26.9288 3.24664 27.1267 2.74849 27.1267C2.25035 27.1267 1.77261 26.9288 1.42037 26.5766C1.06813 26.2243 0.870239 25.7466 0.870239 25.2484C0.870239 24.7503 1.06813 24.2726 1.42037 23.9203L11.3438 14L1.42349 4.07656C1.07125 3.72432 0.873364 3.24658 0.873364 2.74844C0.873364 2.25029 1.07125 1.77255 1.42349 1.42031C1.77573 1.06807 2.25347 0.870184 2.75162 0.870184C3.24976 0.870184 3.7275 1.06807 4.07974 1.42031L14.0001 11.3437L23.9235 1.41875C24.2757 1.06651 24.7535 0.868622 25.2516 0.868622C25.7498 0.868622 26.2275 1.06651 26.5797 1.41875C26.932 1.77099 27.1299 2.24873 27.1299 2.74687C27.1299 3.24502 26.932 3.72276 26.5797 4.075L16.6563 14L26.5766 23.9234Z" fill="white"/>
</svg>
