<svg width="250" height="50" viewBox="0 0 250 50" fill="none" xmlns="http://www.w3.org/2000/svg">
<rect width="250" height="50" rx="15" fill="#F1BFE6"/>
<path d="M51.066 14.8H58.866V17.4H53.926V22.21H57.852V24.81H53.926V30.4H58.866V33H51.066V14.8ZM60.5113 14.8H64.0993L66.8813 25.694H66.9333V14.8H69.4813V33H66.5433L63.1113 19.714H63.0593V33H60.5113V14.8ZM73.843 17.4H70.853V14.8H79.693V17.4H76.703V33H73.843V17.4ZM81.0777 14.8H88.8777V17.4H83.9377V22.21H87.8637V24.81H83.9377V30.4H88.8777V33H81.0777V14.8ZM90.523 14.8H94.761C96.2344 14.8 97.309 15.1467 97.985 15.84C98.661 16.516 98.999 17.5647 98.999 18.986V20.104C98.999 21.9933 98.375 23.1893 97.127 23.692V23.744C97.8204 23.952 98.3057 24.3767 98.583 25.018C98.8777 25.6593 99.025 26.5173 99.025 27.592V30.79C99.025 31.31 99.0424 31.7347 99.077 32.064C99.1117 32.376 99.1984 32.688 99.337 33H96.425C96.321 32.7053 96.2517 32.428 96.217 32.168C96.1824 31.908 96.165 31.44 96.165 30.764V27.436C96.165 26.604 96.0264 26.0233 95.749 25.694C95.489 25.3647 95.0297 25.2 94.371 25.2H93.383V33H90.523V14.8ZM94.423 22.6C94.995 22.6 95.4197 22.4527 95.697 22.158C95.9917 21.8633 96.139 21.3693 96.139 20.676V19.272C96.139 18.6133 96.0177 18.1367 95.775 17.842C95.5497 17.5473 95.1857 17.4 94.683 17.4H93.383V22.6H94.423ZM103.195 17.4H100.205V14.8H109.045V17.4H106.055V33H103.195V17.4ZM111.446 14.8H115.32L118.284 33H115.424L114.904 29.386V29.438H111.654L111.134 33H108.482L111.446 14.8ZM114.566 26.968L113.292 17.972H113.24L111.992 26.968H114.566ZM119.671 14.8H122.531V33H119.671V14.8ZM124.673 14.8H128.261L131.043 25.694H131.095V14.8H133.643V33H130.705L127.273 19.714H127.221V33H124.673V14.8ZM135.769 14.8H139.851L141.671 27.826H141.723L143.543 14.8H147.625V33H144.921V19.22H144.869L142.789 33H140.397L138.317 19.22H138.265V33H135.769V14.8ZM149.759 14.8H157.559V17.4H152.619V22.21H156.545V24.81H152.619V30.4H157.559V33H149.759V14.8ZM159.205 14.8H162.793L165.575 25.694H165.627V14.8H168.175V33H165.237L161.805 19.714H161.753V33H159.205V14.8ZM172.536 17.4H169.546V14.8H178.386V17.4H175.396V33H172.536V17.4ZM183.935 14.8H191.501V17.4H186.795V22.47H190.487V25.07H186.795V33H183.935V14.8ZM192.873 14.8H195.733V33H192.873V14.8ZM197.875 14.8H201.463L204.245 25.694H204.297V14.8H206.845V33H203.907L200.475 19.714H200.423V33H197.875V14.8ZM208.97 14.8H213.338C214.76 14.8 215.826 15.1813 216.536 15.944C217.247 16.7067 217.602 17.8247 217.602 19.298V28.502C217.602 29.9753 217.247 31.0933 216.536 31.856C215.826 32.6187 214.76 33 213.338 33H208.97V14.8ZM213.286 30.4C213.754 30.4 214.11 30.2613 214.352 29.984C214.612 29.7067 214.742 29.256 214.742 28.632V19.168C214.742 18.544 214.612 18.0933 214.352 17.816C214.11 17.5387 213.754 17.4 213.286 17.4H211.83V30.4H213.286ZM219.533 14.8H227.333V17.4H222.393V22.21H226.319V24.81H222.393V30.4H227.333V33H219.533V14.8ZM228.978 14.8H233.216C234.689 14.8 235.764 15.1467 236.44 15.84C237.116 16.516 237.454 17.5647 237.454 18.986V20.104C237.454 21.9933 236.83 23.1893 235.582 23.692V23.744C236.275 23.952 236.761 24.3767 237.038 25.018C237.333 25.6593 237.48 26.5173 237.48 27.592V30.79C237.48 31.31 237.497 31.7347 237.532 32.064C237.567 32.376 237.653 32.688 237.792 33H234.88C234.776 32.7053 234.707 32.428 234.672 32.168C234.637 31.908 234.62 31.44 234.62 30.764V27.436C234.62 26.604 234.481 26.0233 234.204 25.694C233.944 25.3647 233.485 25.2 232.826 25.2H231.838V33H228.978V14.8ZM232.878 22.6C233.45 22.6 233.875 22.4527 234.152 22.158C234.447 21.8633 234.594 21.3693 234.594 20.676V19.272C234.594 18.6133 234.473 18.1367 234.23 17.842C234.005 17.5473 233.641 17.4 233.138 17.4H231.838V22.6H232.878Z" fill="black"/>
<path d="M27.5 41.6667L28.3333 19.1667M20.8333 41.6667L20 19.1667M30.8333 41.6667H17.5M30.8333 19.1667H17.5M14.1666 19.1667C14.1666 19.1667 13.3333 16.6667 14.5833 15.4167C15.8333 14.1667 18.3333 14.5833 18.3333 14.5833C18.3333 14.5833 18.3333 12.0833 20 11.25C21.6666 10.4167 24.1666 11.6667 24.1666 11.6667C24.1666 11.6667 25.8333 8.86916 28.3333 9.58333C30.8333 10.2975 30.8333 13.3333 30.8333 13.3333C30.8333 13.3333 32.9166 13.3333 34.1666 15C35.4166 16.6667 34.1666 19.1667 34.1666 19.1667M33.08 39.0567L37.5 19.1667H10.8333L15.2533 39.0567C15.5316 40.3075 15.67 40.9333 16.1275 41.3C16.5841 41.6667 17.225 41.6667 18.5075 41.6667H29.825C31.1075 41.6667 31.7483 41.6667 32.205 41.3C32.6625 40.9333 32.8008 40.3083 33.08 39.0567Z" stroke="black" stroke-width="4" stroke-linecap="round" stroke-linejoin="round"/>
</svg>
