<svg width="50" height="50" viewBox="0 0 50 50" fill="none" xmlns="http://www.w3.org/2000/svg">
<rect width="50" height="50" rx="15" fill="#F1BFE6"/>
<path d="M27.5 40.6667L28.3333 18.1667M20.8333 40.6667L20 18.1667M30.8333 40.6667H17.5M30.8333 18.1667H17.5M14.1666 18.1667C14.1666 18.1667 13.3333 15.6667 14.5833 14.4167C15.8333 13.1667 18.3333 13.5833 18.3333 13.5833C18.3333 13.5833 18.3333 11.0833 20 10.25C21.6666 9.41666 24.1666 10.6667 24.1666 10.6667C24.1666 10.6667 25.8333 7.86916 28.3333 8.58333C30.8333 9.2975 30.8333 12.3333 30.8333 12.3333C30.8333 12.3333 32.9166 12.3333 34.1666 14C35.4166 15.6667 34.1666 18.1667 34.1666 18.1667M33.08 38.0567L37.5 18.1667H10.8333L15.2533 38.0567C15.5316 39.3075 15.67 39.9333 16.1275 40.3C16.5841 40.6667 17.225 40.6667 18.5075 40.6667H29.825C31.1075 40.6667 31.7483 40.6667 32.205 40.3C32.6625 39.9333 32.8008 39.3083 33.08 38.0567Z" stroke="black" stroke-width="4" stroke-linecap="round" stroke-linejoin="round"/>
</svg>
