<svg width="30" height="30" viewBox="0 0 30 30" fill="none" xmlns="http://www.w3.org/2000/svg">
<path d="M5.5375 19.155C6.02625 19.335 8.6775 19.6625 10.3912 19.855C10.1225 21.4237 10 22.8612 10 24.375C10 26.0987 11.4025 27.5 13.125 27.5C14.8475 27.5 16.25 26.0987 16.25 24.375C16.25 22.0312 17.0825 20.9525 18.27 19.7512C18.6167 20.2148 19.0664 20.5914 19.5835 20.8515C20.1007 21.1116 20.6711 21.248 21.25 21.25C23.3175 21.25 25 19.5675 25 17.5V10C25 7.9325 23.3175 6.25 21.25 6.25C20.3063 6.25 19.4525 6.6125 18.7937 7.19L18.5588 6.94875C17.3588 6.02875 13.975 5 11.2487 5C8.9 5 7.98875 5.36625 7.1825 5.69125L6.7875 5.845C5.745 6.22625 4.8175 7.37875 4.6175 8.595L3.785 16.0625C3.56875 17.3588 4.33875 18.7188 5.5375 19.155ZM21.25 8.75C21.9388 8.75 22.5 9.31 22.5 10V17.5C22.4856 17.8218 22.3476 18.1257 22.1148 18.3484C21.8819 18.5711 21.5722 18.6953 21.25 18.6953C20.9278 18.6953 20.6181 18.5711 20.3852 18.3484C20.1524 18.1257 20.0144 17.8218 20 17.5V10C20 9.31 20.5613 8.75 21.25 8.75ZM7.09125 8.9375C7.1375 8.6575 7.45625 8.26125 7.645 8.1925L8.115 8.01C8.79625 7.73625 9.385 7.5 11.25 7.5C13.6425 7.5 16.3975 8.44125 17.04 8.9325C17.2375 9.0825 17.5 9.6375 17.5 10V16.225C17.4963 16.2837 17.4363 17.045 16.6163 17.865C15.475 19.0075 13.75 20.7325 13.75 24.375C13.75 24.7188 13.4688 25 13.125 25C12.7812 25 12.5 24.7188 12.5 24.375C12.5 22.6163 12.6825 20.9625 13.0988 19.0087L13.47 17.2638L11.8188 17.4987C11.065 17.4362 6.9025 16.94 6.40125 16.8113C6.32875 16.7738 6.23625 16.5825 6.2625 16.4075L7.09125 8.9375Z" fill="white"/>
</svg>
