<svg width="22" height="23" viewBox="0 0 22 23" fill="none" xmlns="http://www.w3.org/2000/svg">
<path d="M19.4625 8.345C18.9737 8.165 16.3225 7.8375 14.6088 7.645C14.8775 6.07625 15 4.63875 15 3.125C15 1.40125 13.5975 0 11.875 0C10.1525 0 8.75 1.40125 8.75 3.125C8.75 5.46875 7.9175 6.5475 6.73 7.74875C6.38327 7.28523 5.93361 6.90857 5.41647 6.64849C4.89934 6.3884 4.32885 6.25199 3.75 6.25C1.6825 6.25 0 7.9325 0 10V17.5C0 19.5675 1.6825 21.25 3.75 21.25C4.69375 21.25 5.5475 20.8875 6.20625 20.31L6.44125 20.5512C7.64125 21.4712 11.025 22.5 13.7513 22.5C16.1 22.5 17.0112 22.1338 17.8175 21.8088L18.2125 21.655C19.255 21.2737 20.1825 20.1213 20.3825 18.905L21.215 11.4375C21.4313 10.1412 20.6612 8.78125 19.4625 8.345ZM3.75 18.75C3.06125 18.75 2.5 18.19 2.5 17.5V10C2.5144 9.67815 2.65238 9.37426 2.88523 9.15159C3.11807 8.92893 3.42783 8.80467 3.75 8.80467C4.07217 8.80467 4.38193 8.92893 4.61477 9.15159C4.84762 9.37426 4.9856 9.67815 5 10V17.5C5 18.19 4.43875 18.75 3.75 18.75ZM17.9087 18.5625C17.8625 18.8425 17.5438 19.2387 17.355 19.3075L16.885 19.49C16.2037 19.7637 15.615 20 13.75 20C11.3575 20 8.6025 19.0588 7.96 18.5675C7.7625 18.4175 7.5 17.8625 7.5 17.5V11.275C7.50375 11.2163 7.56375 10.455 8.38375 9.635C9.525 8.4925 11.25 6.7675 11.25 3.125C11.25 2.78125 11.5312 2.5 11.875 2.5C12.2188 2.5 12.5 2.78125 12.5 3.125C12.5 4.88375 12.3175 6.5375 11.9012 8.49125L11.53 10.2363L13.1813 10.0013C13.935 10.0638 18.0975 10.56 18.5987 10.6887C18.6712 10.7262 18.7637 10.9175 18.7375 11.0925L17.9087 18.5625Z" fill="#00C142"/>
</svg>
