<svg width="22" height="23" viewBox="0 0 22 23" fill="none" xmlns="http://www.w3.org/2000/svg">
<path d="M1.78884 14.155C2.27759 14.335 4.92884 14.6625 6.64259 14.855C6.37384 16.4237 6.25134 17.8613 6.25134 19.375C6.25134 21.0987 7.65384 22.5 9.37634 22.5C11.0988 22.5 12.5013 21.0987 12.5013 19.375C12.5013 17.0312 13.3338 15.9525 14.5213 14.7512C14.8681 15.2148 15.3177 15.5914 15.8349 15.8515C16.352 16.1116 16.9225 16.248 17.5013 16.25C19.5688 16.25 21.2513 14.5675 21.2513 12.5V5C21.2513 2.9325 19.5688 1.25 17.5013 1.25C16.5576 1.25 15.7038 1.6125 15.0451 2.19L14.8101 1.94875C13.6101 1.02875 10.2263 0 7.50009 0C5.15134 0 4.24009 0.366249 3.43384 0.691249L3.03884 0.845001C1.99634 1.22625 1.06884 2.37875 0.868843 3.595L0.0363426 11.0625C-0.179907 12.3588 0.590093 13.7188 1.78884 14.155ZM17.5013 3.75C18.1901 3.75 18.7513 4.31 18.7513 5V12.5C18.7369 12.8218 18.599 13.1257 18.3661 13.3484C18.1333 13.5711 17.8235 13.6953 17.5013 13.6953C17.1792 13.6953 16.8694 13.5711 16.6366 13.3484C16.4037 13.1257 16.2657 12.8218 16.2513 12.5V5C16.2513 4.31 16.8126 3.75 17.5013 3.75ZM3.34259 3.9375C3.38884 3.6575 3.70759 3.26125 3.89634 3.1925L4.36634 3.01C5.04759 2.73625 5.63634 2.5 7.50134 2.5C9.89384 2.5 12.6488 3.44125 13.2913 3.9325C13.4888 4.0825 13.7513 4.6375 13.7513 5V11.225C13.7476 11.2837 13.6876 12.045 12.8676 12.865C11.7263 14.0075 10.0013 15.7325 10.0013 19.375C10.0013 19.7188 9.72009 20 9.37634 20C9.03259 20 8.75134 19.7188 8.75134 19.375C8.75134 17.6163 8.93384 15.9625 9.35009 14.0087L9.72134 12.2637L8.07009 12.4987C7.31634 12.4362 3.15384 11.94 2.65259 11.8113C2.58009 11.7738 2.48759 11.5825 2.51384 11.4075L3.34259 3.9375Z" fill="#FF0000"/>
</svg>
