<svg width="30" height="30" viewBox="0 0 30 30" fill="none" xmlns="http://www.w3.org/2000/svg">
<path d="M24.4625 10.845C23.9737 10.665 21.3225 10.3375 19.6088 10.145C19.8775 8.57625 20 7.13875 20 5.625C20 3.90125 18.5975 2.5 16.875 2.5C15.1525 2.5 13.75 3.90125 13.75 5.625C13.75 7.96875 12.9175 9.0475 11.73 10.2488C11.3833 9.78523 10.9336 9.40857 10.4165 9.14849C9.89934 8.8884 9.32885 8.75199 8.75 8.75C6.6825 8.75 5 10.4325 5 12.5V20C5 22.0675 6.6825 23.75 8.75 23.75C9.69375 23.75 10.5475 23.3875 11.2063 22.81L11.4412 23.0513C12.6412 23.9713 16.025 25 18.7513 25C21.1 25 22.0112 24.6338 22.8175 24.3088L23.2125 24.155C24.255 23.7737 25.1825 22.6213 25.3825 21.405L26.215 13.9375C26.4312 12.6412 25.6612 11.2812 24.4625 10.845ZM8.75 21.25C8.06125 21.25 7.5 20.69 7.5 20V12.5C7.5144 12.1782 7.65238 11.8743 7.88523 11.6516C8.11807 11.4289 8.42783 11.3047 8.75 11.3047C9.07217 11.3047 9.38193 11.4289 9.61477 11.6516C9.84762 11.8743 9.9856 12.1782 10 12.5V20C10 20.69 9.43875 21.25 8.75 21.25ZM22.9087 21.0625C22.8625 21.3425 22.5438 21.7387 22.355 21.8075L21.885 21.99C21.2037 22.2637 20.615 22.5 18.75 22.5C16.3575 22.5 13.6025 21.5588 12.96 21.0675C12.7625 20.9175 12.5 20.3625 12.5 20V13.775C12.5037 13.7163 12.5637 12.955 13.3837 12.135C14.525 10.9925 16.25 9.2675 16.25 5.625C16.25 5.28125 16.5312 5 16.875 5C17.2188 5 17.5 5.28125 17.5 5.625C17.5 7.38375 17.3175 9.0375 16.9012 10.9913L16.53 12.7362L18.1812 12.5013C18.935 12.5638 23.0975 13.06 23.5987 13.1887C23.6712 13.2262 23.7638 13.4175 23.7375 13.5925L22.9087 21.0625Z" fill="white"/>
</svg>
