<svg width="12" height="6" viewBox="0 0 12 6" fill="none" xmlns="http://www.w3.org/2000/svg">
<path d="M11.069 0.157011L6.38399 4.76801C6.28177 4.86914 6.14378 4.92586 5.99999 4.92586C5.8562 4.92586 5.71821 4.86914 5.61599 4.76801L0.92999 0.15801C0.827134 0.0569348 0.688696 0.0002985 0.54449 0.0002985C0.400283 0.0002985 0.261845 0.0569348 0.15899 0.15801C0.108341 0.207388 0.068089 0.266403 0.0406053 0.33158C0.0131216 0.396757 -0.0010376 0.466776 -0.0010376 0.53751C-0.0010376 0.608245 0.0131216 0.678264 0.0406053 0.743441C0.068089 0.808617 0.108341 0.867633 0.15899 0.91701L4.84299 5.52701C5.15151 5.82994 5.56661 5.99966 5.99899 5.99966C6.43137 5.99966 6.84647 5.82994 7.15499 5.52701L11.839 0.91701C11.8898 0.867618 11.9302 0.80854 11.9577 0.743271C11.9853 0.678002 11.9995 0.607866 11.9995 0.537011C11.9995 0.466156 11.9853 0.396019 11.9577 0.33075C11.9302 0.265481 11.8898 0.206403 11.839 0.157011C11.7361 0.0559349 11.5977 -0.000701904 11.4535 -0.000701904C11.3093 -0.000701904 11.1708 0.0559349 11.068 0.157011" fill="white"/>
</svg>
